<svg width="28" height="29" viewBox="0 0 28 29" fill="none" xmlns="http://www.w3.org/2000/svg">
<path d="M13.142 9.98462C14.1097 9.02849 15.0543 8.04918 16.0394 7.09884C17.772 5.42416 20.6926 5.78343 22.0022 7.81159C23.0278 9.40515 22.8308 11.4101 21.4922 12.7603C20.5882 13.6759 19.6669 14.5856 18.7571 15.4954C18.3399 15.9126 18.224 16.411 18.4442 16.9557C18.8035 17.8481 19.9103 18.0393 20.6288 17.3323C21.556 16.4168 22.4715 15.5012 23.3871 14.5741C23.6884 14.2727 23.9666 13.9366 24.1926 13.5716C26.1048 10.6047 25.4442 6.87284 22.6222 4.71141C20.426 3.02514 17.1751 2.99616 14.9384 4.61869C14.1445 5.19237 13.5129 5.93989 12.916 6.50198C12.3423 7.07566 11.873 7.54503 11.3978 8.0202C11.2587 8.15928 11.137 8.30414 11.0501 8.48378C10.7836 9.05167 10.9458 9.72386 11.4326 10.0831C11.9773 10.4772 12.6668 10.4482 13.142 9.98462Z" fill="white"/>
<path d="M5.64368 24.5874C8.01952 26.3142 11.4442 26.1809 13.6462 24.2687C14.7936 23.272 15.8192 22.1536 16.8855 21.0758C17.407 20.5427 17.3664 19.714 16.8565 19.2273C16.3234 18.7173 15.5295 18.7463 14.979 19.2852C14.498 19.7546 14.0229 20.2413 13.5477 20.7165C13.0725 21.1917 12.6032 21.6842 12.1164 22.1478C10.5634 23.6197 7.92101 23.4922 6.54766 21.8986C5.11056 20.2298 5.19748 17.9524 6.76206 16.3878C7.65445 15.4954 8.54105 14.6089 9.43343 13.7165C9.73476 13.4151 9.88542 13.0559 9.83327 12.6328C9.77532 12.0997 9.48559 11.7173 8.97565 11.5318C8.43095 11.3348 7.94998 11.4797 7.54435 11.8853C6.63458 12.7951 5.71321 13.7049 4.80923 14.6204C4.37463 15.0666 3.99218 15.565 3.69664 16.1155C2.11468 19.065 2.93753 22.6114 5.64368 24.5874Z" fill="white"/>
<path d="M10.3604 16.498C9.85044 17.0195 9.87362 17.8076 10.3836 18.3175C10.8935 18.8275 11.6816 18.8507 12.1973 18.3349C14.069 16.4748 15.9291 14.6031 17.8008 12.743C17.9689 12.575 18.0848 12.3663 18.1427 12.1346C18.2702 11.5783 18.0268 10.9988 17.5401 10.7091C17.0417 10.4077 16.4043 10.4657 15.9813 10.8887C15.0425 11.8158 14.1154 12.7546 13.1824 13.6875C12.2379 14.6089 11.2875 15.5477 10.3604 16.498Z" fill="white"/>
</svg>
